<svg xmlns="http://www.w3.org/2000/svg" width="1200" height="630" viewBox="0 0 1200 630" role="img" aria-label="Wartung FDM Space Release Portal">
  <rect width="1200" height="630" fill="#f3f6f7"/>
  <rect x="70" y="70" width="1060" height="490" rx="24" fill="#ffffff" stroke="#d6e1e6" stroke-width="3"/>
  <rect x="70" y="70" width="1060" height="72" rx="24" fill="#102129"/>
  <circle cx="114" cy="106" r="11" fill="#d65e5e"/>
  <circle cx="148" cy="106" r="11" fill="#d9a337"/>
  <circle cx="182" cy="106" r="11" fill="#4ca377"/>
  <text x="225" y="115" font-family="Segoe UI, Arial, sans-serif" font-size="24" font-weight="700" fill="#ffffff">Wartung Dashboard</text>
  <text x="120" y="235" font-family="Segoe UI, Arial, sans-serif" font-size="72" font-weight="800" fill="#0e1920">Wartung FDM Space</text>
  <text x="124" y="285" font-family="Segoe UI, Arial, sans-serif" font-size="28" fill="#5c6e78">Release-Portal fuer Druckerwartung, Audit-Log, Backups und Rollen.</text>
  <rect x="124" y="340" width="190" height="94" rx="12" fill="#fff8f8" stroke="#e4c6c6"/>
  <rect x="346" y="340" width="190" height="94" rx="12" fill="#fffaf0" stroke="#e4d4b5"/>
  <rect x="568" y="340" width="190" height="94" rx="12" fill="#f3fbf7" stroke="#bfd9cc"/>
  <text x="148" y="378" font-family="Segoe UI, Arial, sans-serif" font-size="18" font-weight="800" fill="#b44848">FAELLIG</text>
  <text x="148" y="418" font-family="Segoe UI, Arial, sans-serif" font-size="38" font-weight="800" fill="#0e1920">7</text>
  <text x="370" y="378" font-family="Segoe UI, Arial, sans-serif" font-size="18" font-weight="800" fill="#9a6b17">BALD</text>
  <text x="370" y="418" font-family="Segoe UI, Arial, sans-serif" font-size="38" font-weight="800" fill="#0e1920">2</text>
  <text x="592" y="378" font-family="Segoe UI, Arial, sans-serif" font-size="18" font-weight="800" fill="#2e7658">OK</text>
  <text x="592" y="418" font-family="Segoe UI, Arial, sans-serif" font-size="38" font-weight="800" fill="#0e1920">18</text>
  <rect x="840" y="214" width="220" height="220" rx="24" fill="#1f6b7d"/>
  <text x="895" y="308" font-family="Segoe UI, Arial, sans-serif" font-size="52" font-weight="900" fill="#ffffff">FDM</text>
  <path d="M908 364l30 30 56-76" fill="none" stroke="#ffffff" stroke-width="14" stroke-linecap="round" stroke-linejoin="round"/>
  <text x="120" y="503" font-family="Segoe UI, Arial, sans-serif" font-size="24" font-weight="700" fill="#174f5d">GitHub Pages statisch - App live auf Railway - Tests vor Deploy</text>
</svg>
